<?xml version="1.0" standalone="no"?>
<!DOCTYPE svg PUBLIC "-//W3C//DTD SVG 20010904//EN"
 "http://www.w3.org/TR/2001/REC-SVG-20010904/DTD/svg10.dtd">
<svg version="1.0" xmlns="http://www.w3.org/2000/svg"
 width="700.000000pt" height="700.000000pt" viewBox="0 0 700.000000 700.000000"
 preserveAspectRatio="xMidYMid meet">
<metadata>
Created by potrace 1.11, written by Peter Selinger 2001-2013
</metadata>
<g transform="translate(0.000000,700.000000) scale(0.100000,-0.100000)"
fill="#000000" stroke="none">
<path d="M1169 6120 c-4 -22 -3 -5233 1 -5239 3 -4 134 -7 293 -6 l287 0 0
292 0 292 290 0 c219 0 290 -3 291 -12 0 -7 1 -138 2 -292 l2 -280 1155 -1
c635 0 1160 1 1166 3 8 3 11 85 12 266 0 144 1 274 1 289 l1 27 290 0 290 1 0
-293 0 -292 288 0 c269 0 287 1 292 18 3 10 5 1191 4 2625 l0 2607 -292 0
-292 0 0 -291 0 -291 -290 -2 -290 -1 -1 28 c0 15 -1 137 0 272 0 135 -2 254
-4 265 -4 20 -11 20 -1168 20 l-1164 0 -1 -280 c0 -154 -1 -285 -1 -292 -1 -9
-74 -12 -291 -12 l-290 1 0 292 0 291 -290 0 c-159 0 -290 -2 -291 -5z m2771
-579 l145 -1 -1 -2035 c0 -1119 -3 -2037 -6 -2040 -4 -4 -665 -7 -1133 -5
l-30 0 1 2037 0 2037 23 6 c12 3 210 4 439 3 229 -1 482 -2 562 -2z m-1609
-599 c1 -21 1 -543 0 -557 -1 -7 -101 -10 -288 -10 l-288 0 -3 292 -2 291 290
0 c263 0 290 -1 291 -16z m2917 -276 l-3 -291 -275 -1 c-151 0 -282 3 -290 7
-13 6 -15 47 -13 291 1 155 2 284 2 285 1 1 132 1 291 1 l290 0 -2 -292z
m-2915 -1153 c-1 -153 -2 -284 -2 -290 -1 -10 -66 -13 -291 -13 l-290 0 0 290
0 290 293 0 292 0 -2 -277z m2917 -13 l0 -290 -290 0 c-159 0 -290 3 -291 8
-1 9 -1 543 0 560 1 9 66 12 291 12 l290 0 0 -290z m-2919 -905 c0 -16 1 -147
2 -290 l0 -260 -291 -2 -292 -1 0 287 c0 158 2 290 4 292 2 2 133 4 290 4
l286 0 1 -30z m2912 26 c4 0 7 -131 7 -290 l0 -289 -290 0 c-209 0 -290 4
-291 12 -1 14 -1 513 0 546 l1 25 283 -1 c155 -1 285 -2 290 -3z"/>
</g>
</svg>
